<svg width="860" height="967" viewBox="0 0 860 967" fill="none" xmlns="http://www.w3.org/2000/svg">
<path d="M251.533 437.835C246.553 438.285 242.099 437.884 238.171 436.632C234.26 435.58 230.432 433.215 226.686 429.537C222.921 425.66 218.986 419.891 214.88 412.229C210.973 404.55 206.434 394.317 201.262 381.53L163.833 287.316C160.451 278.786 155.983 271.559 150.427 265.635C145.071 259.692 139.451 255.28 133.568 252.398C127.684 249.516 122.352 248.29 117.572 248.722C112.393 249.19 108.761 251.225 106.677 254.828C104.593 258.43 103.486 262.847 103.356 268.08C103.227 273.313 103.405 278.619 103.891 283.997L117.848 438.467C118.064 440.858 117.546 442.913 116.296 444.632C115.046 446.352 113.026 447.337 110.238 447.589C104.86 448.075 101.937 445.729 101.469 440.55L87.1336 281.896C85.8918 268.152 87.2832 256.881 91.3078 248.083C95.3325 239.285 103.719 234.311 116.467 233.159C123.837 232.493 131.568 233.602 139.66 236.485C147.735 239.169 155.292 243.909 162.332 250.703C169.553 257.28 175.27 266.101 179.483 277.167L217.075 373.173C223.06 388.296 227.879 399.408 231.533 406.508C235.187 413.608 238.407 418.136 241.195 420.093C243.982 422.05 246.969 422.885 250.156 422.597C254.339 422.219 257.5 420.528 259.638 417.523C261.758 414.319 263.119 410.481 263.719 406.009C264.319 401.537 264.43 397.21 264.052 393.027L249.636 233.477C249.168 228.298 251.623 225.465 257.001 224.979C262.578 224.475 265.583 226.614 266.015 231.394L281.052 397.816C281.952 407.776 280.344 416.656 276.23 424.458C272.115 432.26 263.883 436.719 251.533 437.835ZM85.7374 449.803C80.5585 450.271 77.7441 448.015 77.2941 443.035C76.8442 438.056 79.2087 435.332 84.3876 434.864L133.089 430.463C138.268 429.995 141.083 432.251 141.532 437.231C141.982 442.211 139.618 444.935 134.439 445.403L85.7374 449.803ZM234.014 240.611C228.836 241.079 226.021 238.823 225.571 233.844C225.121 228.864 227.486 226.14 232.665 225.672L281.366 221.272C286.545 220.804 289.36 223.06 289.809 228.039C290.259 233.019 287.895 235.743 282.716 236.211L234.014 240.611ZM168.029 360.435C167.705 356.85 169.336 354.895 172.921 354.571L201.007 352.033C204.194 351.746 205.968 353.593 206.328 357.577C206.669 361.362 205.347 363.389 202.359 363.659L173.893 365.327C170.308 365.651 168.353 364.021 168.029 360.435ZM144.701 305.612C144.395 302.226 145.935 300.38 149.322 300.074L177.407 297.536C180.993 297.212 182.929 298.644 183.217 301.831C183.559 305.615 182.037 307.661 178.651 307.966L150.565 310.504C146.98 310.828 145.025 309.197 144.701 305.612ZM156.827 333.132C156.521 329.746 158.061 327.9 161.447 327.594L189.533 325.057C192.919 324.751 194.783 326.49 195.125 330.274C195.431 333.661 193.891 335.507 190.505 335.813L162.419 338.35C159.033 338.656 157.169 336.917 156.827 333.132ZM99.5909 249.745C107.16 249.061 113.723 250.576 119.28 254.291C125.036 257.988 129.877 262.672 133.803 268.341C137.929 273.993 141.14 279.527 143.436 284.942L181.276 373.697C186.322 385.089 191.948 395.124 198.154 403.8C204.36 412.477 211.681 419.045 220.116 423.504C228.552 427.963 238.347 429.688 249.501 428.681L251.533 437.835C237.988 439.059 226.419 437.694 216.824 433.742C207.429 429.771 199.22 423.384 192.2 414.58C185.36 405.559 179.038 394.483 173.233 381.352L135.853 294.363C133.538 288.748 130.527 283.197 126.818 277.708C123.091 272.02 118.965 267.473 114.44 264.067C109.897 260.461 105.235 258.874 100.455 259.306L99.5909 249.745ZM412.346 423.305C398.403 424.565 385.593 422.81 373.916 418.042C362.421 413.056 352.711 405.599 344.785 395.672C337.059 385.727 331.968 373.837 329.513 360.002L316.367 361.19C311.188 361.658 308.374 359.402 307.924 354.422C307.474 349.442 309.838 346.719 315.017 346.251L328.164 345.063C327.666 328.44 330.534 314.626 336.769 303.62C343.004 292.615 351.085 284.253 361.01 278.537C371.136 272.803 381.775 269.432 392.93 268.424C400.698 267.722 408.982 268.279 417.781 270.094C426.761 271.693 435.206 275.147 443.116 280.456C451.207 285.549 458.093 292.859 463.774 302.386C469.436 311.715 472.933 323.749 474.265 338.489C474.409 340.082 473.973 341.929 472.958 344.029C471.943 346.129 470.041 347.305 467.252 347.557L345.947 358.517C348.132 369.365 352.291 378.728 358.425 386.608C364.541 394.289 372.097 400.133 381.095 404.139C390.273 407.929 400.24 409.338 410.996 408.366C419.561 407.592 426.706 405.541 432.429 402.212C438.135 398.684 442.899 394.74 446.722 390.378C450.527 385.817 453.852 381.5 456.698 377.428C457.749 375.726 458.836 374.423 459.959 373.518C461.263 372.396 462.613 371.772 464.007 371.646C464.804 371.574 465.718 371.693 466.75 372.001C467.963 372.092 468.886 372.31 469.52 372.654C471.638 373.869 472.823 375.87 473.075 378.659C473.183 379.854 472.811 381.293 471.959 382.977C471.107 384.66 469.086 387.855 465.897 392.561C463.776 395.765 460.506 399.575 456.085 403.991C451.665 408.406 445.814 412.55 438.533 416.42C431.433 420.074 422.704 422.369 412.346 423.305ZM344.57 343.279L454.522 333.345C456.115 333.201 456.849 332.431 456.723 331.037C456.363 327.053 454.727 322.281 451.815 316.721C448.885 310.961 444.768 305.409 439.466 300.064C434.146 294.521 427.629 290.189 419.917 287.071C412.387 283.735 403.642 282.517 393.682 283.417C384.918 284.209 376.732 286.956 369.124 291.66C361.698 296.147 355.665 302.716 351.024 311.369C346.565 319.804 344.414 330.441 344.57 343.279ZM427.43 306.875L458.205 304.095L459.15 314.552L428.375 317.333L427.43 306.875ZM395.921 311.529C398.69 313.287 399.296 315.542 397.737 318.293L380.555 348.161C379.014 351.111 376.551 351.635 373.166 349.732C370.397 347.974 369.792 345.719 371.35 342.968L388.532 313.101C389.239 312.033 390.281 311.336 391.657 311.011C393.015 310.487 394.437 310.659 395.921 311.529ZM425.202 308.884C427.971 310.642 428.576 312.896 427.018 315.648L409.836 345.515C408.295 348.466 405.832 348.99 402.447 347.086C399.678 345.328 399.072 343.074 400.631 340.322L417.813 310.455C418.52 309.387 419.561 308.691 420.938 308.365C422.296 307.841 423.717 308.014 425.202 308.884ZM339.651 348.844C339.345 345.458 340.885 343.612 344.271 343.306L443.467 334.343C446.853 334.038 448.699 335.578 449.005 338.964C449.329 342.549 447.898 344.486 444.711 344.774L345.515 353.737C341.929 354.061 339.975 352.43 339.651 348.844ZM337.059 320.161C336.753 316.775 338.293 314.929 341.679 314.623L440.875 305.66C444.261 305.354 446.108 306.894 446.413 310.281C446.737 313.866 445.306 315.803 442.119 316.091L342.923 325.053C339.338 325.377 337.383 323.747 337.059 320.161ZM601.094 403.841C598.704 404.057 596.604 403.042 594.794 400.796L548.244 345.661L512.602 407.921C511.025 410.473 509.241 411.839 507.249 412.019C505.855 412.145 504.207 411.691 502.307 410.658C500.207 409.643 498.841 407.859 498.208 405.305C498.046 403.513 498.5 401.865 499.569 400.363L537.794 333.351L488.882 275.418C488.412 274.657 487.95 273.996 487.498 273.434C487.028 272.673 486.756 271.895 486.684 271.098C486.451 268.508 487.647 266.191 490.274 264.147C491.958 262.79 493.597 262.039 495.191 261.895C497.78 261.661 499.88 262.676 501.49 264.941L548.367 320.347L584.28 257.761C585.676 255.426 587.361 254.069 589.334 253.69C591.127 253.528 592.974 253.964 594.875 254.997C597.192 256.193 598.458 257.986 598.674 260.377C598.8 261.771 598.346 263.419 597.313 265.319L558.817 332.657L607.403 390.318C608.76 392.003 609.501 393.543 609.627 394.937C609.807 396.929 608.692 399.038 606.283 401.264C604.815 402.802 603.086 403.661 601.094 403.841ZM525.121 313.109C522.17 311.569 521.565 309.314 523.305 306.345L549.839 259.97C551.579 257.001 553.934 256.387 556.902 258.127C560.287 260.03 561.101 262.366 559.343 265.135L532.483 311.239C530.543 314.226 528.09 314.849 525.121 313.109ZM595.199 258.582C595.504 261.968 593.964 263.814 590.578 264.12L555.919 267.252C552.135 267.594 550.089 266.072 549.783 262.686C549.46 259.1 551.09 257.146 554.676 256.822L589.334 253.69C592.92 253.366 594.875 254.997 595.199 258.582ZM569.721 309.983C567.112 312.227 564.586 312.054 562.143 309.463L526.748 267.779C524.722 265.352 525.103 262.907 527.893 260.446C530.701 258.185 533.127 258.367 535.172 260.994L570.295 303.003C572.539 305.612 572.347 307.939 569.721 309.983ZM490.299 267.759C489.975 264.174 491.605 262.219 495.191 261.895L529.85 258.763C533.435 258.44 535.39 260.07 535.714 263.656C536.02 267.042 534.28 268.906 530.496 269.248L495.837 272.379C492.451 272.685 490.605 271.145 490.299 267.759ZM527.27 356.894C529.878 354.65 532.404 354.823 534.847 357.414L569.536 397.957C571.762 400.366 571.381 402.811 568.392 405.29C565.783 407.534 563.357 407.351 561.113 404.742L526.695 363.874C524.452 361.265 524.643 358.938 527.27 356.894ZM605.986 397.977C606.31 401.562 604.679 403.517 601.094 403.841L566.435 406.973C562.85 407.297 560.895 405.666 560.571 402.08C560.265 398.694 562.004 396.83 565.789 396.488L600.448 393.357C603.834 393.051 605.68 394.591 605.986 397.977ZM571.952 351.35C574.903 352.891 575.508 355.146 573.768 358.114L546.744 405.74C545.203 408.69 542.849 409.304 539.681 407.583C536.496 405.661 535.682 403.325 537.241 400.574L564.591 353.22C566.53 350.234 568.984 349.611 571.952 351.35ZM501.385 407.127C501.079 403.741 502.619 401.895 506.005 401.589L540.664 398.457C544.449 398.115 546.494 399.637 546.8 403.023C547.124 406.609 545.493 408.564 541.908 408.887L507.249 412.019C503.664 412.343 501.709 410.712 501.385 407.127ZM695.521 394.707C689.346 395.265 683.145 394.419 676.917 392.171C670.888 389.904 665.685 385.655 661.306 379.424C656.928 373.192 654.235 364.499 653.227 353.345L639.999 206.941C639.819 204.949 640.354 203.094 641.604 201.374C643.054 199.637 645.173 198.642 647.962 198.39C650.352 198.174 652.425 198.89 654.18 200.539C655.918 201.989 656.868 203.61 657.029 205.402C658.253 218.947 659.27 231.306 660.078 242.479C661.086 253.633 662.067 264.489 663.021 275.046C663.957 285.404 664.829 296.169 665.638 307.341C666.645 318.496 667.761 330.846 668.985 344.39C670.245 358.334 673.218 367.905 677.905 373.104C682.574 378.104 687.996 380.326 694.171 379.768C698.155 379.408 701.831 377.871 705.201 375.156C708.769 372.424 711.623 368.451 713.763 363.238C715.576 358.857 718.176 356.513 721.562 356.207C722.359 356.135 723.372 356.244 724.604 356.535C727.899 357.442 729.717 359.788 730.059 363.572C730.185 364.967 730.003 366.288 729.514 367.538C725.941 376.897 721.13 383.657 715.08 387.819C709.012 391.781 702.492 394.077 695.521 394.707ZM628.098 265.249C622.919 265.717 620.104 263.461 619.654 258.481C619.204 253.501 621.569 250.778 626.748 250.31L702.041 243.507C707.22 243.039 710.034 245.295 710.484 250.274C710.934 255.254 708.57 257.978 703.391 258.446L628.098 265.249ZM680.635 249.959C684.021 249.653 685.867 251.193 686.173 254.579L694.65 348.397C694.956 351.783 693.416 353.63 690.029 353.935C686.444 354.259 684.507 352.828 684.219 349.641L675.743 255.823C675.419 252.238 677.049 250.283 680.635 249.959ZM713.763 363.238L714.465 371.006C710.859 375.549 706.793 377.221 702.267 376.024C697.741 374.826 693.768 371.972 690.348 367.462C686.928 362.951 684.966 357.907 684.462 352.33L681.547 320.061L692.004 319.117L694.569 347.501C695.109 353.477 696.636 358.158 699.151 361.546C701.865 364.915 704.644 366.772 707.487 367.118C710.528 367.446 712.62 366.152 713.763 363.238ZM664.442 307.449C661.653 309.91 659.235 309.828 657.191 307.201C656.304 306.277 655.698 305.127 655.373 303.751C655.247 302.356 655.927 300.99 657.412 299.65L678.961 281.437C681.768 279.176 684.294 279.349 686.538 281.958C687.443 283.081 687.859 284.349 687.785 285.761C687.893 286.956 687.295 288.114 685.991 289.236L664.442 307.449ZM666.518 337.083C663.728 339.544 661.31 339.461 659.266 336.834C658.379 335.911 657.773 334.76 657.448 333.384C657.322 331.99 658.002 330.623 659.487 329.284L681.036 311.071C683.844 308.809 686.369 308.982 688.613 311.591C689.518 312.714 689.934 313.982 689.861 315.394C689.969 316.589 689.37 317.748 688.066 318.87L666.518 337.083ZM134.074 681.393C128.696 681.879 125.773 679.532 125.305 674.353L117.26 585.316L103.516 586.558C101.524 586.738 99.7677 586.194 98.2474 584.925C96.7271 583.657 95.877 582.027 95.697 580.035C95.4991 577.844 96.0342 575.988 97.3026 574.468C98.7701 572.93 100.5 572.071 102.492 571.891L115.937 570.676L107.811 480.742C107.343 475.563 109.898 472.722 115.475 472.218L177.323 466.63C188.478 465.622 198.635 466.913 207.795 470.503C216.956 474.094 224.395 479.747 230.112 487.464C236.029 495.163 239.509 504.789 240.553 516.341C241.597 527.894 240.025 538.278 235.837 547.492C231.631 556.507 225.561 563.783 217.627 569.319C209.675 574.657 200.62 577.784 190.462 578.702L133.693 583.831L141.684 672.271C141.9 674.661 141.382 676.716 140.132 678.436C138.882 680.155 136.862 681.141 134.074 681.393ZM132.37 569.191L190.633 563.927C197.604 563.297 203.681 560.539 208.862 555.653C214.043 550.767 218.03 544.884 220.822 538.005C223.597 530.926 224.678 524.001 224.066 517.229C223.454 510.456 221.086 504.244 216.96 498.593C213.034 492.923 207.912 488.466 201.595 485.221C195.277 481.976 188.134 480.714 180.167 481.434L124.892 486.428L132.37 569.191ZM128.834 676.746C128.51 673.16 130.141 671.205 133.726 670.881L164.501 668.101C168.086 667.777 170.041 669.408 170.365 672.993C170.671 676.379 168.932 678.243 165.147 678.585L134.372 681.366C130.986 681.672 129.14 680.132 128.834 676.746ZM163.985 619.048C165.107 620.353 165.531 621.72 165.259 623.15C165.186 624.563 164.687 625.712 163.763 626.599L137.459 648.856C135.032 650.883 132.705 650.691 130.479 648.282C128 645.293 128.074 642.776 130.701 640.731L157.005 618.474C159.432 616.447 161.759 616.639 163.985 619.048ZM161.339 589.768C162.461 591.072 162.886 592.439 162.613 593.87C162.54 595.282 162.042 596.431 161.118 597.318L134.814 619.575C132.386 621.602 130.06 621.411 127.834 619.001C125.355 616.012 125.429 613.495 128.055 611.451L154.359 589.193C156.787 587.167 159.113 587.358 161.339 589.768ZM137.36 681.096C133.775 681.42 131.82 679.789 131.496 676.204L122.533 577.008C122.246 573.821 123.894 572.065 127.48 571.741C130.866 571.435 132.712 572.976 133.018 576.362L141.981 675.558C142.287 678.944 140.746 680.79 137.36 681.096ZM166.043 678.504C162.458 678.828 160.503 677.198 160.179 673.612L151.217 574.416C150.929 571.229 152.577 569.474 156.163 569.15C159.549 568.844 161.395 570.384 161.701 573.77L170.664 672.966C170.97 676.352 169.43 678.198 166.043 678.504ZM269.195 533.032C266.804 533.248 264.849 532.722 263.329 531.453C262.026 530.366 261.275 528.727 261.077 526.536C260.861 524.146 261.306 522.399 262.411 521.295C263.679 519.774 265.509 518.906 267.899 518.69L283.137 517.313C285.328 517.115 287.039 517.162 288.27 517.452C289.483 517.543 290.207 517.779 290.443 518.159C292.18 519.609 293.148 521.429 293.346 523.62C293.345 525.829 292.8 527.586 291.713 528.889C291.17 529.54 290.318 530.119 289.159 530.625C288.199 531.114 286.624 531.457 284.433 531.655L269.195 533.032ZM274.417 617.505C274.111 614.118 275.651 612.272 279.038 611.966L308.02 609.348C311.406 609.042 313.252 610.582 313.558 613.968C313.882 617.553 312.45 619.49 309.263 619.778L279.983 622.424C278.588 622.55 277.357 622.259 276.289 621.553C275.203 620.647 274.579 619.297 274.417 617.505ZM298.347 665.647C292.968 666.132 290.045 663.786 289.578 658.607L286.095 620.064C285.627 614.885 288.082 612.053 293.46 611.567C299.038 611.063 302.06 613.4 302.528 618.579L306.011 657.122C306.479 662.301 303.924 665.143 298.347 665.647ZM289.951 572.725C284.573 573.211 281.65 570.865 281.182 565.686L277.564 525.649C277.096 520.47 279.551 517.637 284.929 517.151C290.507 516.648 293.529 518.985 293.997 524.164L297.615 564.201C298.083 569.38 295.528 572.221 289.951 572.725ZM270.044 569.102C269.738 565.716 271.278 563.869 274.664 563.563L303.646 560.945C307.032 560.639 308.879 562.179 309.185 565.565C309.508 569.151 308.077 571.087 304.89 571.375L275.609 574.021C274.215 574.147 272.984 573.856 271.916 573.15C270.83 572.244 270.206 570.894 270.044 569.102ZM273.293 588.388C275.051 585.618 277.305 585.013 280.057 586.572L309.924 603.754C312.875 605.294 313.398 607.757 311.495 611.142C309.737 613.912 307.483 614.517 304.731 612.958L274.864 595.776C273.796 595.069 273 594.037 272.475 592.679C272.15 591.302 272.423 589.872 273.293 588.388ZM308.639 619.533C305.253 619.839 303.406 618.299 303.1 614.913L298.889 568.303C298.583 564.917 300.123 563.071 303.509 562.765C307.095 562.441 309.032 563.872 309.319 567.059L313.531 613.669C313.855 617.255 312.224 619.209 308.639 619.533ZM279.956 622.125C276.569 622.431 274.723 620.891 274.417 617.505L270.206 570.894C269.9 567.508 271.44 565.662 274.826 565.356C278.412 565.032 280.348 566.464 280.636 569.651L284.848 616.261C285.172 619.846 283.541 621.801 279.956 622.125ZM274.746 661.152C274.548 658.961 275.093 657.205 276.379 655.884C277.647 654.363 279.477 653.495 281.867 653.279L296.507 651.957C298.897 651.741 300.844 652.167 302.346 653.236C303.866 654.505 304.725 656.234 304.923 658.425C305.139 660.816 304.613 662.771 303.345 664.291C302.059 665.612 300.22 666.381 297.83 666.597L283.19 667.92C280.799 668.136 278.844 667.609 277.324 666.341C275.821 665.272 274.962 663.542 274.746 661.152ZM320.759 656.995C320.975 659.385 320.44 661.241 319.153 662.562C317.885 664.082 316.056 664.95 313.665 665.166L299.025 666.489C296.834 666.687 294.888 666.26 293.186 665.209C291.666 663.941 290.798 662.111 290.582 659.721C290.384 657.53 290.919 655.674 292.187 654.154C293.673 652.815 295.511 652.047 297.702 651.849L312.343 650.526C314.733 650.31 316.688 650.836 318.209 652.104C319.711 653.173 320.561 654.804 320.759 656.995ZM281.384 494.579C278.197 494.867 275.409 494.014 273.02 492.021C270.83 490.01 269.591 487.411 269.303 484.224C269.033 481.236 269.795 478.557 271.589 476.186C273.582 473.797 276.172 472.458 279.359 472.17C282.546 471.882 285.334 472.735 287.723 474.728C290.112 476.721 291.442 479.212 291.712 482.199C292 485.386 291.147 488.174 289.154 490.563C287.161 492.952 284.571 494.291 281.384 494.579ZM360.29 660.953C357.501 661.205 355.446 660.688 354.125 659.402C352.804 658.116 352.062 656.576 351.9 654.783C351.666 652.194 352.365 649.922 353.995 647.967L455.106 516.837L355.611 525.826L357.204 543.454C357.672 548.633 355.416 551.448 350.436 551.898C345.456 552.348 342.732 549.983 342.265 544.804L340.213 522.097C340.069 520.503 340.188 518.484 340.569 516.04C340.933 513.397 343.007 511.904 346.792 511.562L468.695 500.548C471.484 500.296 473.565 501.112 474.941 502.995C476.497 504.662 477.365 506.491 477.545 508.483C477.743 510.674 477.298 512.422 476.211 513.725L373.879 644.664L473.672 635.648L472.08 618.02C471.612 612.841 473.868 610.026 478.847 609.576C483.827 609.126 486.551 611.491 487.019 616.67L489.286 641.768C489.502 644.158 488.877 646.122 487.409 647.66C486.123 648.981 484.384 649.741 482.193 649.939L360.29 660.953ZM350.374 614.557C349.071 613.47 348.275 612.438 347.986 611.46C347.679 610.283 348.159 608.934 349.428 607.414L422.542 513.152C424.517 510.564 426.898 510.248 429.686 512.205C432.491 514.361 432.906 516.734 430.931 519.322L357.817 613.584C357.11 614.652 356.069 615.348 354.692 615.673C353.316 615.999 351.877 615.627 350.374 614.557ZM352.932 606.193C356.318 605.887 358.164 607.428 358.47 610.814L362.331 653.54C362.673 657.324 361.151 659.37 357.764 659.675C354.179 659.999 352.224 658.369 351.9 654.783L348.04 612.057C347.716 608.472 349.347 606.517 352.932 606.193ZM382.879 577.582C379.892 575.643 379.169 573.198 380.71 570.248C381.417 569.18 382.35 568.393 383.509 567.886C384.849 567.163 386.361 567.227 388.045 568.079L412.509 582.135C415.495 584.074 416.209 586.419 414.651 589.17C413.781 590.655 412.766 591.65 411.607 592.156C410.448 592.663 409.018 592.39 407.316 591.339L382.879 577.582ZM401.551 554.207C398.565 552.268 397.842 549.823 399.382 546.873C400.089 545.805 401.022 545.018 402.181 544.511C403.522 543.788 405.034 543.852 406.717 544.704L431.181 558.759C434.168 560.699 434.882 563.044 433.323 565.795C432.453 567.28 431.438 568.275 430.279 568.781C429.12 569.288 427.69 569.015 425.988 567.964L401.551 554.207ZM527.48 645.847C524.691 646.099 522.636 645.582 521.315 644.296C519.994 643.009 519.252 641.47 519.09 639.677C518.856 637.088 519.555 634.816 521.186 632.861L622.296 501.73L522.801 510.72L524.394 528.348C524.862 533.527 522.606 536.342 517.626 536.791C512.646 537.241 509.923 534.877 509.455 529.698L507.403 506.99C507.259 505.397 507.378 503.378 507.759 500.934C508.123 498.29 510.197 496.798 513.982 496.456L635.885 485.441C638.674 485.189 640.756 486.005 642.131 487.889C643.687 489.556 644.555 491.385 644.735 493.377C644.933 495.568 644.488 497.315 643.401 498.618L541.069 629.558L640.862 620.542L639.27 602.913C638.802 597.734 641.058 594.92 646.037 594.47C651.017 594.02 653.741 596.385 654.209 601.564L656.477 626.661C656.692 629.052 656.067 631.016 654.599 632.554C653.313 633.875 651.574 634.635 649.383 634.833L527.48 645.847ZM517.564 599.451C516.261 598.364 515.465 597.332 515.176 596.354C514.869 595.176 515.349 593.828 516.618 592.307L589.732 498.046C591.707 495.457 594.088 495.142 596.876 497.099C599.681 499.255 600.096 501.628 598.121 504.216L525.007 598.478C524.3 599.545 523.259 600.242 521.882 600.567C520.506 600.892 519.067 600.52 517.564 599.451ZM520.122 591.087C523.508 590.781 525.354 592.321 525.66 595.707L529.521 638.433C529.863 642.218 528.341 644.263 524.954 644.569C521.369 644.893 519.414 643.262 519.09 639.677L515.23 596.951C514.906 593.366 516.537 591.411 520.122 591.087ZM550.069 562.476C547.082 560.537 546.359 558.092 547.9 555.142C548.607 554.074 549.54 553.287 550.699 552.78C552.039 552.057 553.551 552.121 555.235 552.973L579.699 567.028C582.685 568.967 583.399 571.313 581.841 574.064C580.971 575.548 579.956 576.544 578.797 577.05C577.638 577.557 576.208 577.284 574.506 576.233L550.069 562.476ZM568.741 539.101C565.755 537.162 565.032 534.717 566.572 531.767C567.279 530.699 568.212 529.911 569.371 529.405C570.712 528.682 572.224 528.746 573.907 529.598L598.371 543.653C601.358 545.592 602.072 547.938 600.513 550.689C599.643 552.173 598.628 553.169 597.469 553.675C596.31 554.181 594.88 553.909 593.178 552.858L568.741 539.101ZM789.39 614.953C789.3 613.957 789.508 612.934 790.016 611.885C790.524 610.835 791.14 609.875 791.864 609.007C792.227 608.572 792.897 608.21 793.875 607.921C795.034 607.415 796.709 607.063 798.9 606.865L814.138 605.488C816.528 605.272 818.484 605.798 820.004 607.066C821.289 607.954 822.04 609.594 822.256 611.984C822.454 614.175 822.009 615.922 820.922 617.225C819.654 618.745 817.824 619.613 815.434 619.829L800.196 621.206C796.013 621.584 793.46 621.112 792.538 619.79C791.071 619.119 790.022 617.507 789.39 614.953ZM735.033 630.106C720.093 631.456 707.547 628.172 697.393 620.253C687.421 612.118 681.804 601.078 680.545 587.135C679.663 577.375 681.551 568.268 686.209 559.815C690.867 551.361 697.462 544.339 705.994 538.749C714.706 532.941 724.341 529.56 734.898 528.607C747.049 527.509 757.053 528.211 764.91 530.714C772.966 533.2 778.84 535.982 782.533 539.062C780.715 518.944 774.973 505.406 765.308 498.448C755.624 491.29 743.114 488.404 727.776 489.79C720.406 490.456 713.506 492.987 707.076 497.384C700.827 501.563 695.7 505.942 691.696 510.521C689.702 512.91 688.045 514.566 686.722 515.489C685.599 516.393 684.44 516.9 683.245 517.008C680.656 517.242 678.357 516.244 676.348 514.016C675.009 512.531 674.267 510.991 674.123 509.398C673.979 507.804 674.632 506.139 676.082 504.401C683.094 495.333 690.694 488.321 698.881 483.364C707.05 478.208 716.214 475.171 726.373 474.253C747.088 472.381 763.726 476.501 776.287 486.612C788.848 496.722 796.01 511.538 797.774 531.058L805.171 612.925C805.639 618.104 803.084 620.945 797.507 621.449C792.129 621.935 789.206 619.589 788.738 614.41L787.874 604.849C781.423 613.464 773.643 619.589 764.533 623.224C755.423 626.858 745.59 629.152 735.033 630.106ZM736.509 613.104C744.476 612.385 752.327 610.37 760.06 607.061C767.993 603.733 774.415 599.237 779.325 593.572C784.235 587.907 786.357 581.39 785.691 574.02C784.917 565.455 781.815 558.908 776.386 554.378C770.956 549.848 764.358 546.83 756.591 545.322C749.005 543.598 741.527 543.069 734.157 543.735C727.583 544.329 721.272 546.706 715.222 550.867C709.371 555.011 704.615 560.16 700.954 566.314C697.492 572.45 696.058 578.805 696.652 585.379C697.48 594.541 701.143 601.741 707.64 606.977C714.337 612.196 723.96 614.238 736.509 613.104ZM737.736 603.354C735.474 600.547 735.657 598.12 738.283 596.076L759.832 577.863C762.64 575.601 765.066 575.783 767.111 578.41C769.572 581.2 769.489 583.617 766.862 585.662L745.341 604.173C744.218 605.078 742.95 605.494 741.538 605.421C740.125 605.348 738.858 604.659 737.736 603.354ZM735.091 574.074C732.829 571.266 733.011 568.84 735.638 566.795L757.186 548.582C759.994 546.32 762.42 546.503 764.465 549.129C766.926 551.919 766.843 554.336 764.217 556.381L742.695 574.893C741.572 575.797 740.304 576.213 738.892 576.14C737.48 576.067 736.213 575.378 735.091 574.074ZM769.261 618.881C765.875 619.187 764.029 617.646 763.723 614.26L756.893 538.668C756.587 535.282 758.127 533.436 761.513 533.13C765.099 532.806 767.035 534.237 767.323 537.424L774.153 613.017C774.477 616.602 772.847 618.557 769.261 618.881ZM740.578 621.472C737.192 621.778 735.346 620.238 735.04 616.852L728.21 541.26C727.904 537.874 729.444 536.027 732.83 535.721C736.416 535.398 738.352 536.829 738.64 540.016L745.47 615.608C745.794 619.194 744.164 621.148 740.578 621.472Z" fill="#2F7D4F"/>
<path d="M75.3653 227.238L13.5088 83.893C368.942 -33.6417 544.353 -7.08962 832.509 136.019L743.8 297.222M113.726 153.876C270.212 106.972 360.579 100.96 526.103 124.435M718.865 188.627C671.501 168.019 644.85 157.606 596.591 141.81M259.976 676.098L369.783 943L425.886 840.197L429.242 875.912C440.186 888.707 446.746 889.449 459.451 875.912V782.762L505.964 706.022" stroke="#FA4900" stroke-width="20" stroke-linecap="round"/>
</svg>
